<svg class="wrench" xmlns="http://www.w3.org/2000/svg" xmlns:xlink="http://www.w3.org/1999/xlink" width="6912" zoomAndPan="magnify" viewBox="0 0 5184 2592.000001" height="3456" preserveAspectRatio="xMidYMid meet" version="1.0"><defs><clipPath id="db48cf9a90"><path d="M 582 501 L 4602 501 L 4602 2090 L 582 2090 Z M 582 501 " clip-rule="nonzero"/></clipPath><clipPath id="e211a66af8"><path d="M 69.6875 1295.5 L 2592.023438 -1226.835938 L 5114.363281 1295.5 L 2592.023438 3817.835938 Z M 69.6875 1295.5 " clip-rule="nonzero"/></clipPath><clipPath id="cf52f84a82"><path d="M 69.6875 1295.5 L 2592.023438 -1226.835938 L 5114.363281 1295.5 L 2592.023438 3817.835938 Z M 69.6875 1295.5 " clip-rule="nonzero"/></clipPath></defs><g clip-path="url(#db48cf9a90)"><g clip-path="url(#e211a66af8)"><g clip-path="url(#cf52f84a82)"><path fill="#00ff00" d="M 3430.386719 734.144531 C 3386.808594 777.726562 3350.023438 825.4375 3318.777344 875.605469 L 1865.363281 875.605469 C 1834.042969 825.507812 1797.261719 777.796875 1753.679688 734.214844 C 1443.644531 424.179688 941.003906 424.179688 631.042969 734.144531 C 567.84375 797.34375 547.945312 945.597656 687.933594 945.597656 L 1107.898438 945.597656 C 1107.898438 945.597656 1317.882812 1015.59375 1317.8125 1295.5 C 1317.742188 1575.40625 1107.757812 1645.402344 1107.757812 1645.402344 L 687.933594 1645.402344 C 547.945312 1645.402344 567.492188 1793.304688 631.042969 1856.855469 C 941.074219 2166.886719 1443.714844 2166.886719 1753.75 1856.855469 C 1797.332031 1813.273438 1834.113281 1765.5625 1865.433594 1715.464844 L 3318.707031 1715.464844 C 3349.953125 1765.628906 3386.738281 1813.34375 3430.316406 1856.925781 C 3740.351562 2166.957031 4242.992188 2166.820312 4552.957031 1856.855469 C 4616.085938 1793.726562 4635.984375 1645.46875 4495.996094 1645.46875 L 4076.03125 1645.46875 C 4076.03125 1645.46875 3866.046875 1575.476562 3866.117188 1295.570312 C 3866.1875 1015.664062 4076.03125 945.667969 4076.03125 945.667969 L 4495.996094 945.667969 C 4636.054688 945.597656 4616.503906 797.691406 4553.027344 734.214844 C 4242.992188 424.179688 3740.351562 424.179688 3430.386719 734.144531 Z M 3430.386719 734.144531 " fill-opacity="1" fill-rule="nonzero"/></g></g></g></svg>