<svg xmlns="http://www.w3.org/2000/svg" xmlns:xlink="http://www.w3.org/1999/xlink" width="6912" zoomAndPan="magnify" viewBox="0 0 5184 2592.000001" height="3456" preserveAspectRatio="xMidYMid meet" version="1.0"><defs><clipPath id="d6b9ea3bff"><path d="M 693 995 L 1341 995 L 1341 1644 L 693 1644 Z M 693 995 " clip-rule="nonzero"/></clipPath><clipPath id="4f2a48acf4"><path d="M 2853.066406 -1580.121094 L 5752.320312 1319.136719 L 2900.246094 4171.210938 L 0.992188 1271.953125 Z M 2853.066406 -1580.121094 " clip-rule="nonzero"/></clipPath><clipPath id="21f1b083c8"><path d="M 2853.066406 -1580.121094 L 5752.320312 1319.136719 L 2900.246094 4171.210938 L 0.992188 1271.953125 Z M 2853.066406 -1580.121094 " clip-rule="nonzero"/></clipPath><clipPath id="a3048a6eda"><path d="M 2853.066406 -1580.121094 L 5752.320312 1319.136719 L 2900.246094 4171.210938 L 0.992188 1271.953125 Z M 2853.066406 -1580.121094 " clip-rule="nonzero"/></clipPath><clipPath id="b7b36c5c35"><path d="M 331 137 L 4613 137 L 4613 2502 L 331 2502 Z M 331 137 " clip-rule="nonzero"/></clipPath><clipPath id="1399101041"><path d="M 2853.066406 -1580.121094 L 5752.320312 1319.136719 L 2900.246094 4171.210938 L 0.992188 1271.953125 Z M 2853.066406 -1580.121094 " clip-rule="nonzero"/></clipPath><clipPath id="2b74e29186"><path d="M 2853.066406 -1580.121094 L 5752.320312 1319.136719 L 2900.246094 4171.210938 L 0.992188 1271.953125 Z M 2853.066406 -1580.121094 " clip-rule="nonzero"/></clipPath><clipPath id="eb84be6bbd"><path d="M 2853.066406 -1580.121094 L 5752.320312 1319.136719 L 2900.246094 4171.210938 L 0.992188 1271.953125 Z M 2853.066406 -1580.121094 " clip-rule="nonzero"/></clipPath></defs><g clip-path="url(#d6b9ea3bff)"><g clip-path="url(#4f2a48acf4)"><g clip-path="url(#21f1b083c8)"><g clip-path="url(#a3048a6eda)"><path fill="#000000" d="M 1016.886719 995.902344 C 838.472656 995.902344 693.027344 1141.34375 693.03125 1319.757812 C 693.03125 1408.964844 729.394531 1489.929688 788.058594 1548.59375 C 846.722656 1607.257812 927.6875 1643.621094 1016.894531 1643.621094 C 1195.308594 1643.625 1340.75 1498.179688 1340.75 1319.765625 C 1340.746094 1141.351562 1195.300781 995.90625 1016.886719 995.902344 Z M 1016.890625 1438.058594 C 951.925781 1438.058594 898.59375 1384.726562 898.59375 1319.761719 C 898.59375 1254.796875 951.921875 1201.464844 1016.886719 1201.464844 C 1049.855469 1201.46875 1078.945312 1215.042969 1100.277344 1236.375 C 1121.609375 1257.707031 1134.699219 1287.28125 1135.1875 1319.765625 C 1134.703125 1385.214844 1081.855469 1438.058594 1016.890625 1438.058594 Z M 1016.890625 1438.058594 " fill-opacity="1" fill-rule="nonzero"/></g></g></g></g><g clip-path="url(#b7b36c5c35)"><g clip-path="url(#1399101041)"><g clip-path="url(#2b74e29186)"><g clip-path="url(#eb84be6bbd)"><path fill="#000000" d="M 4612.324219 2399.015625 L 4612.296875 240.601562 C 4612.296875 183.390625 4566.238281 137.332031 4509.511719 137.816406 L 2841.25 137.3125 C 2784.042969 137.3125 2737.984375 183.367188 2738.46875 240.09375 L 2738.476562 904.292969 L 1559.882812 904.765625 C 1434.796875 740.894531 1237.472656 634.714844 1016.394531 634.710938 C 638.722656 635.191406 331.835938 942.078125 331.355469 1319.753906 C 331.359375 1508.832031 408.445312 1679.976562 532.078125 1803.605469 C 656.191406 1927.722656 827.335938 2004.808594 1015.929688 2004.328125 C 1199.191406 2004.328125 1371.300781 1933.0625 1500.261719 1804.101562 C 1522.078125 1782.285156 1541.46875 1759.015625 1559.894531 1734.773438 L 2738.003906 1734.789062 L 2738.011719 2398.992188 C 2738.011719 2426.140625 2748.679688 2452.324219 2768.070312 2471.714844 C 2787.464844 2491.109375 2813.644531 2501.773438 2840.796875 2501.777344 L 4509.542969 2501.796875 C 4566.265625 2502.28125 4612.324219 2456.226562 4612.324219 2399.015625 Z M 1016.410156 1799.25 C 752.667969 1799.246094 536.921875 1584.46875 536.917969 1319.757812 C 537.398438 1055.53125 752.65625 840.273438 1016.398438 840.277344 C 1144.390625 840.277344 1265.113281 890.214844 1355.289062 980.394531 C 1445.953125 1071.054688 1495.40625 1191.292969 1495.40625 1319.285156 C 1495.410156 1447.277344 1445.472656 1567.996094 1355.296875 1658.171875 C 1265.121094 1749.316406 1144.886719 1798.765625 1016.410156 1799.25 Z M 3464.261719 1724.132812 C 3356.632812 1724.132812 3254.820312 1682.4375 3178.21875 1605.832031 C 3102.101562 1529.714844 3059.433594 1427.902344 3059.917969 1319.789062 C 3059.914062 1096.773438 3241.234375 915.453125 3464.253906 915.453125 C 3687.269531 915.457031 3868.59375 1096.78125 3868.597656 1319.800781 C 3868.601562 1542.816406 3687.28125 1724.136719 3464.261719 1724.132812 Z M 4227.375 2296.230469 L 4227.351562 343.378906 L 4406.734375 343.378906 L 4406.273438 2296.71875 Z M 4227.375 2296.230469 " fill-opacity="1" fill-rule="nonzero"/></g></g></g></g></svg>