<svg xmlns="http://www.w3.org/2000/svg" xmlns:xlink="http://www.w3.org/1999/xlink" width="3840" zoomAndPan="magnify" viewBox="0 0 2880 194.249992" height="259" preserveAspectRatio="xMidYMid meet" version="1.0"><defs><clipPath id="96d7218484"><path d="M 9 0 L 2475.113281 0 L 2475.113281 193.503906 L 9 193.503906 Z M 9 0 " clip-rule="nonzero"/></clipPath><clipPath id="a5d626dd1e"><path d="M 377 34 L 2475.113281 34 L 2475.113281 97 L 377 97 Z M 377 34 " clip-rule="nonzero"/></clipPath><clipPath id="7513b15a5e"><path d="M 2416 34 L 2475.113281 34 L 2475.113281 193.503906 L 2416 193.503906 Z M 2416 34 " clip-rule="nonzero"/></clipPath><clipPath id="d99f8448a5"><path d="M 2399.746094 0 L 2703 0 L 2703 193.503906 L 2399.746094 193.503906 Z M 2399.746094 0 " clip-rule="nonzero"/></clipPath><clipPath id="35ba566f45"><path d="M 2399.746094 34 L 2540 34 L 2540 97 L 2399.746094 97 Z M 2399.746094 34 " clip-rule="nonzero"/></clipPath><clipPath id="a8ae7e563b"><path d="M 2416 34 L 2703 34 L 2703 193.503906 L 2416 193.503906 Z M 2416 34 " clip-rule="nonzero"/></clipPath><clipPath id="a5cb95c8e9"><path d="M 2584 34 L 2871 34 L 2871 193.503906 L 2584 193.503906 Z M 2584 34 " clip-rule="nonzero"/></clipPath></defs><g clip-path="url(#96d7218484)"><path fill="#cdcdcd" d="M 211.207031 193.503906 L 2702.1875 193.503906 L 2500.824219 0 L 9.84375 0 Z M 211.207031 193.503906 " fill-opacity="1" fill-rule="evenodd"/></g><path fill="#007f00" d="M 67.796875 55.007812 L 1843.703125 55.007812 L 1788.695312 1.964844 L 12.792969 1.964844 Z M 67.796875 55.007812 " fill-opacity="1" fill-rule="evenodd"/><g clip-path="url(#a5d626dd1e)"><path fill="#00ff00" d="M 442.035156 34.378906 L 2539.132812 34.378906 L 2474.304688 96.261719 L 377.207031 96.261719 Z M 442.035156 34.378906 " fill-opacity="1" fill-rule="evenodd"/></g><g clip-path="url(#7513b15a5e)"><path fill="#7f7f7f" d="M 2582.351562 193.503906 L 2702.1875 193.503906 L 2537.167969 34.378906 L 2416.351562 34.378906 Z M 2582.351562 193.503906 " fill-opacity="1" fill-rule="evenodd"/></g><g clip-path="url(#d99f8448a5)"><path fill="#cdcdcd" d="M 211.207031 193.503906 L 2702.1875 193.503906 L 2500.824219 0 L 9.84375 0 Z M 211.207031 193.503906 " fill-opacity="1" fill-rule="evenodd"/></g><g clip-path="url(#35ba566f45)"><path fill="#00ff00" d="M 442.035156 34.378906 L 2539.132812 34.378906 L 2474.304688 96.261719 L 377.207031 96.261719 Z M 442.035156 34.378906 " fill-opacity="1" fill-rule="evenodd"/></g><g clip-path="url(#a8ae7e563b)"><path fill="#7f7f7f" d="M 2582.351562 193.503906 L 2702.1875 193.503906 L 2537.167969 34.378906 L 2416.351562 34.378906 Z M 2582.351562 193.503906 " fill-opacity="1" fill-rule="evenodd"/></g><g clip-path="url(#a5cb95c8e9)"><path fill="#00ff00" d="M 2749.335938 193.503906 L 2870.152344 193.503906 L 2704.152344 34.378906 L 2584.316406 34.378906 Z M 2749.335938 193.503906 " fill-opacity="1" fill-rule="evenodd"/></g></svg>